HIERARCHY
ROOT Hips
{
	OFFSET 0.000000 71.427986 0.000000
	CHANNELS 6 Xposition Yposition Zposition Xrotation Yrotation Zrotation
	JOINT Pelvis
	{
		OFFSET 0.000000 0.000000 0.000000
		CHANNELS 3 Xrotation Yrotation Zrotation
		JOINT LeftUpLeg
		{
			OFFSET 6.797100 -2.508499 -1.318700
			CHANNELS 3 Xrotation Yrotation Zrotation
			JOINT LeftLeg
			{
				OFFSET 0.069008 -29.241863 0.690200
				CHANNELS 3 Xrotation Yrotation Zrotation
				JOINT LeftFoot
				{
					OFFSET -0.069008 -29.568123 -0.266800
					CHANNELS 3 Xrotation Yrotation Zrotation
					JOINT LeftToeBase
					{
						OFFSET 3.145500 -8.631000 16.059900
						CHANNELS 3 Xrotation Yrotation Zrotation
						End Site
						{
							OFFSET 0.000000 18.501587 0.000000
						}
					}
				}
			}
			JOINT Left_ShortSleeve
			{
				OFFSET 0.265923 -10.480953 1.153800
				CHANNELS 3 Xrotation Yrotation Zrotation
				End Site
				{
					OFFSET 1.725763 19.823879 0.000000
				}
			}
		}
		JOINT RightUpLeg
		{
			OFFSET -6.797100 -2.508499 -1.318700
			CHANNELS 3 Xrotation Yrotation Zrotation
			JOINT RightLeg
			{
				OFFSET -0.082453 -29.241932 0.688000
				CHANNELS 3 Xrotation Yrotation Zrotation
				JOINT RightFoot
				{
					OFFSET 0.082453 -29.568058 -0.264600
					CHANNELS 3 Xrotation Yrotation Zrotation
					JOINT RightToeBase
					{
						OFFSET -3.115300 -8.682800 16.113400
						CHANNELS 3 Xrotation Yrotation Zrotation
						End Site
						{
							OFFSET 0.000000 18.567114 0.000000
						}
					}
				}
			}
			JOINT Right_ShortSleeve
			{
				OFFSET -0.265923 -10.480953 1.153800
				CHANNELS 3 Xrotation Yrotation Zrotation
				End Site
				{
					OFFSET -1.725766 19.823910 0.000000
				}
			}
		}
	}
	JOINT Spine
	{
		OFFSET 0.000000 13.368103 0.470500
		CHANNELS 3 Xrotation Yrotation Zrotation
		JOINT Spine1
		{
			OFFSET 0.147000 13.837402 0.538800
			CHANNELS 3 Xrotation Yrotation Zrotation
			JOINT Spine2
			{
				OFFSET 0.168000 16.242897 -1.435500
				CHANNELS 3 Xrotation Yrotation Zrotation
				JOINT Neck
				{
					OFFSET 0.217200 18.631500 -1.679100
					CHANNELS 3 Xrotation Yrotation Zrotation
					JOINT Head
					{
						OFFSET 0.000000 6.599396 1.385900
						CHANNELS 3 Xrotation Yrotation Zrotation
						JOINT Hat
						{
							OFFSET -0.532200 27.220596 -10.096100
							CHANNELS 3 Xrotation Yrotation Zrotation
							End Site
							{
								OFFSET 0.000000 22.029861 0.000000
							}
						}
						JOINT HairD
						{
							OFFSET -10.777400 17.437393 -1.325900
							CHANNELS 3 Xrotation Yrotation Zrotation
							JOINT HairD1
							{
								OFFSET -3.290299 -11.051193 1.062200
								CHANNELS 3 Xrotation Yrotation Zrotation
								End Site
								{
									OFFSET 0.000000 11.579437 0.000000
								}
							}
						}
						JOINT HairB
						{
							OFFSET -10.777400 17.437393 1.467900
							CHANNELS 3 Xrotation Yrotation Zrotation
							JOINT HairB1
							{
								OFFSET -1.561200 -12.956299 3.590200
								CHANNELS 3 Xrotation Yrotation Zrotation
								End Site
								{
									OFFSET 0.000000 13.534866 0.000000
								}
							}
						}
						JOINT HairA
						{
							OFFSET 9.713100 17.437393 1.467900
							CHANNELS 3 Xrotation Yrotation Zrotation
							JOINT HairA1
							{
								OFFSET 1.561200 -12.956299 3.590200
								CHANNELS 3 Xrotation Yrotation Zrotation
								End Site
								{
									OFFSET 0.000000 13.534866 0.000000
								}
							}
						}
						JOINT HairC
						{
							OFFSET 9.713100 17.437393 -1.325900
							CHANNELS 3 Xrotation Yrotation Zrotation
							JOINT HairC1
							{
								OFFSET 3.290300 -11.051193 1.062200
								CHANNELS 3 Xrotation Yrotation Zrotation
								End Site
								{
									OFFSET 0.000000 11.579437 0.000000
								}
							}
						}
					}
				}
				JOINT LeftShoulder
				{
					OFFSET 5.101800 15.108002 -2.763700
					CHANNELS 3 Xrotation Yrotation Zrotation
					JOINT LeftArm
					{
						OFFSET 9.825497 2.506317 -1.597400
						CHANNELS 3 Xrotation Yrotation Zrotation
						JOINT LeftForeArm
						{
							OFFSET 21.966244 0.000000 0.000000
							CHANNELS 3 Xrotation Yrotation Zrotation
							JOINT LeftHand
							{
								OFFSET 33.879036 0.000000 0.000000
								CHANNELS 3 Xrotation Yrotation Zrotation
								JOINT LeftHandThumb1
								{
									OFFSET 6.715286 -2.359680 3.363841
									CHANNELS 3 Xrotation Yrotation Zrotation
									JOINT LeftHandThumb2
									{
										OFFSET 2.507072 -1.447464 1.447461
										CHANNELS 3 Xrotation Yrotation Zrotation
										JOINT LeftHandThumb3
										{
											OFFSET 2.898338 -1.673355 1.673357
											CHANNELS 3 Xrotation Yrotation Zrotation
											End Site
											{
												OFFSET -0.295959 3.727692 -0.131651
											}
										}
									}
								}
								JOINT LeftHandIndex1
								{
									OFFSET 14.190811 -0.254547 3.840278
									CHANNELS 3 Xrotation Yrotation Zrotation
									JOINT LeftHandIndex2
									{
										OFFSET 3.551727 0.000000 -0.000000
										CHANNELS 3 Xrotation Yrotation Zrotation
										JOINT LeftHandIndex3
										{
											OFFSET 2.894196 0.000000 0.000000
											CHANNELS 3 Xrotation Yrotation Zrotation
											End Site
											{
												OFFSET -1.000603 2.690872 0.366626
											}
										}
									}
								}
								JOINT LeftHandMiddle1
								{
									OFFSET 13.776489 0.000000 0.000000
									CHANNELS 3 Xrotation Yrotation Zrotation
									JOINT LeftHandMiddle2
									{
										OFFSET 3.438232 0.000000 0.000000
										CHANNELS 3 Xrotation Yrotation Zrotation
										JOINT LeftHandMiddle3
										{
											OFFSET 3.691551 0.000000 0.000000
											CHANNELS 3 Xrotation Yrotation Zrotation
											End Site
											{
												OFFSET -1.082298 3.499527 0.457670
											}
										}
									}
								}
								JOINT LeftHandRing1
								{
									OFFSET 13.966164 -0.268127 -3.067488
									CHANNELS 3 Xrotation Yrotation Zrotation
									JOINT LeftHandRing2
									{
										OFFSET 3.162567 0.000000 0.000000
										CHANNELS 3 Xrotation Yrotation Zrotation
										JOINT LeftHandRing3
										{
											OFFSET 3.324348 0.000000 0.000000
											CHANNELS 3 Xrotation Yrotation Zrotation
											End Site
											{
												OFFSET -0.861900 3.184998 0.405154
											}
										}
									}
								}
								JOINT LeftHandPinky1
								{
									OFFSET 13.131393 -0.168503 -5.746925
									CHANNELS 3 Xrotation Yrotation Zrotation
									JOINT LeftHandPinky2
									{
										OFFSET 2.849182 0.000000 0.000000
										CHANNELS 3 Xrotation Yrotation Zrotation
										JOINT LeftHandPinky3
										{
											OFFSET 2.805038 0.000000 0.000000
											CHANNELS 3 Xrotation Yrotation Zrotation
											End Site
											{
												OFFSET -0.882500 2.642609 0.325652
											}
										}
									}
								}
							}
							JOINT Left_Sleeve
							{
								OFFSET 6.592125 -0.646545 0.805568
								CHANNELS 3 Xrotation Yrotation Zrotation
								End Site
								{
									OFFSET -0.000179 20.275787 -0.000000
								}
							}
						}
					}
				}
				JOINT RightShoulder
				{
					OFFSET -5.731700 15.108002 -2.763700
					CHANNELS 3 Xrotation Yrotation Zrotation
					JOINT RightArm
					{
						OFFSET -9.825497 2.506317 -1.597400
						CHANNELS 3 Xrotation Yrotation Zrotation
						JOINT RightForeArm
						{
							OFFSET -21.966242 0.000000 0.000000
							CHANNELS 3 Xrotation Yrotation Zrotation
							JOINT RightHand
							{
								OFFSET -33.879032 0.000000 0.000000
								CHANNELS 3 Xrotation Yrotation Zrotation
								JOINT RightHandThumb1
								{
									OFFSET -6.715286 -2.359680 3.363841
									CHANNELS 3 Xrotation Yrotation Zrotation
									JOINT RightHandThumb2
									{
										OFFSET -2.507072 -1.447464 1.447461
										CHANNELS 3 Xrotation Yrotation Zrotation
										JOINT RightHandThumb3
										{
											OFFSET -2.898338 -1.673355 1.673357
											CHANNELS 3 Xrotation Yrotation Zrotation
											End Site
											{
												OFFSET 0.295959 3.727692 -0.131651
											}
										}
									}
								}
								JOINT RightHandIndex1
								{
									OFFSET -14.190811 -0.254547 3.840278
									CHANNELS 3 Xrotation Yrotation Zrotation
									JOINT RightHandIndex2
									{
										OFFSET -3.551727 0.000000 -0.000000
										CHANNELS 3 Xrotation Yrotation Zrotation
										JOINT RightHandIndex3
										{
											OFFSET -2.894196 0.000000 0.000000
											CHANNELS 3 Xrotation Yrotation Zrotation
											End Site
											{
												OFFSET 1.000603 2.690872 0.366626
											}
										}
									}
								}
								JOINT RightHandMiddle1
								{
									OFFSET -13.776489 0.000000 0.000000
									CHANNELS 3 Xrotation Yrotation Zrotation
									JOINT RightHandMiddle2
									{
										OFFSET -3.438232 0.000000 0.000000
										CHANNELS 3 Xrotation Yrotation Zrotation
										JOINT RightHandMiddle3
										{
											OFFSET -3.691551 0.000000 0.000000
											CHANNELS 3 Xrotation Yrotation Zrotation
											End Site
											{
												OFFSET 1.082298 3.499527 0.457670
											}
										}
									}
								}
								JOINT RightHandRing1
								{
									OFFSET -13.966164 -0.268127 -3.067488
									CHANNELS 3 Xrotation Yrotation Zrotation
									JOINT RightHandRing2
									{
										OFFSET -3.162567 0.000000 0.000000
										CHANNELS 3 Xrotation Yrotation Zrotation
										JOINT RightHandRing3
										{
											OFFSET -3.324348 0.000000 0.000000
											CHANNELS 3 Xrotation Yrotation Zrotation
											End Site
											{
												OFFSET 0.861900 3.184998 0.405154
											}
										}
									}
								}
								JOINT RightHandPinky1
								{
									OFFSET -13.131393 -0.168503 -5.746925
									CHANNELS 3 Xrotation Yrotation Zrotation
									JOINT RightHandPinky2
									{
										OFFSET -2.849182 0.000000 0.000000
										CHANNELS 3 Xrotation Yrotation Zrotation
										JOINT RightHandPinky3
										{
											OFFSET -2.805038 0.000000 0.000000
											CHANNELS 3 Xrotation Yrotation Zrotation
											End Site
											{
												OFFSET 0.882500 2.642609 0.325652
											}
										}
									}
								}
							}
							JOINT Right_Sleeve
							{
								OFFSET -6.592125 -0.646545 0.805568
								CHANNELS 3 Xrotation Yrotation Zrotation
								End Site
								{
									OFFSET 0.000179 20.275787 -0.000000
								}
							}
						}
					}
				}
				JOINT Bind_Right_JacketString
				{
					OFFSET -3.534800 11.969597 7.200700
					CHANNELS 3 Xrotation Yrotation Zrotation
					JOINT Bind_Right_JacketString1
					{
						OFFSET -0.319900 -6.102600 2.794100
						CHANNELS 3 Xrotation Yrotation Zrotation
						End Site
						{
							OFFSET 0.000000 6.719452 0.000000
						}
					}
				}
				JOINT Bind_Left_JacketString
				{
					OFFSET 2.904800 11.969597 7.200700
					CHANNELS 3 Xrotation Yrotation Zrotation
					JOINT Bind_Left_JacketString1
					{
						OFFSET 0.364800 -5.904503 3.186800
						CHANNELS 3 Xrotation Yrotation Zrotation
						End Site
						{
							OFFSET 0.000000 6.719513 0.000000
						}
					}
				}
				JOINT HairE
				{
					OFFSET 5.915200 17.612701 -11.592200
					CHANNELS 3 Xrotation Yrotation Zrotation
					JOINT HairE1
					{
						OFFSET 0.289200 -7.171898 -1.284500
						CHANNELS 3 Xrotation Yrotation Zrotation
						End Site
						{
							OFFSET 0.000000 7.291756 0.000000
						}
					}
				}
				JOINT HairF
				{
					OFFSET -0.864800 17.612701 -11.592200
					CHANNELS 3 Xrotation Yrotation Zrotation
					JOINT HairF1
					{
						OFFSET 0.000000 -14.087097 -2.127501
						CHANNELS 3 Xrotation Yrotation Zrotation
						End Site
						{
							OFFSET 0.000000 14.246841 0.000000
						}
					}
				}
				JOINT HairG
				{
					OFFSET -8.087700 17.612701 -11.592200
					CHANNELS 3 Xrotation Yrotation Zrotation
					JOINT HairG1
					{
						OFFSET -0.293600 -6.081398 -0.910100
						CHANNELS 3 Xrotation Yrotation Zrotation
						End Site
						{
							OFFSET 0.000000 6.156120 0.000000
						}
					}
				}
			}
		}
	}
	JOINT Pouch
	{
		OFFSET 0.000000 4.394501 10.847300
		CHANNELS 3 Xrotation Yrotation Zrotation
		End Site
		{
			OFFSET 0.000000 21.880577 0.000000
		}
	}
	JOINT Bag
	{
		OFFSET -13.229000 4.813004 -0.593300
		CHANNELS 3 Xrotation Yrotation Zrotation
		End Site
		{
			OFFSET 0.000000 21.880577 0.000000
		}
	}
	JOINT OccupyGuyFacialAnim_Joint
	{
		OFFSET 1.000000 -70.206398 -1.655000
		CHANNELS 3 Xrotation Yrotation Zrotation
		End Site
		{
			OFFSET 0.000000 21.880577 0.000000
		}
	}
}
MOTION
Frames: 5
Frame Time: 0.016667
-0.644071 65.673309 3.578674 -12.955837 -1.258915 -5.227163 0.000000 0.000000 -0.000000 -28.987538 20.725080 11.447675 42.860516 -9.249038 10.084498 -4.226397 -7.992951 -0.981580 0.000000 -0.000000 -0.000000 0.000003 0.000000 -0.000003 -20.134498 -36.604223 -0.901839 39.629413 9.338031 -10.355251 -6.084379 7.686799 -5.247257 -0.000000 -0.000002 -0.000000 -0.000000 0.000001 -0.000000 5.923908 -0.633712 2.857335 9.106089 -0.324703 -0.848842 9.111606 -0.022997 -0.851798 15.434440 0.560290 0.855190 -3.243828 0.523976 4.960275 -0.000000 0.000000 -0.000000 -0.000000 0.000000 -0.000000 -0.000000 0.000000 -0.000000 -0.000000 0.000000 -0.000000 -0.000000 -0.000000 0.000000 -0.000000 0.000000 -0.000000 -0.000000 -0.000000 0.000000 -0.000000 0.000000 -0.000000 -0.000000 0.000000 -0.000000 0.689291 3.725265 -11.385279 59.736916 -63.314672 -9.099201 0.000006 -20.467427 0.000010 -19.310939 9.265462 -7.550689 21.734246 5.841507 -2.497393 -16.162760 18.936389 19.036138 -0.000000 0.000001 -0.000001 0.152617 1.444573 -12.061575 0.086630 1.091006 -9.079583 0.000001 0.000002 -0.000003 0.152212 1.442685 -12.045594 0.086936 1.092908 -9.095567 0.000001 0.000001 -0.000001 0.152622 1.444565 -12.061572 0.086635 1.091017 -9.079566 0.000001 0.000001 0.000001 0.985186 5.412801 -11.600975 0.078382 -2.964039 -9.583905 0.000001 -0.000000 0.000001 -0.000001 -0.000000 0.000001 1.381294 0.020058 11.778362 9.839209 40.445327 56.843245 -0.000001 26.830936 -0.000016 35.425698 -10.440543 11.800193 -0.389756 -6.638713 -15.665599 8.907266 -22.771340 0.157759 0.000000 -0.000002 -0.000004 0.174547 -1.551260 12.839278 0.140306 -1.392639 11.506926 -0.000001 -0.000000 0.000000 0.174541 -1.551251 12.839279 0.140315 -1.392649 11.506922 0.000001 0.000001 -0.000002 0.174543 -1.551239 12.839269 0.140301 -1.392664 11.506923 0.000002 -0.000001 0.000001 0.174549 -1.551239 12.839277 0.140302 -1.392663 11.506928 -0.000001 0.000001 -0.000003 0.000003 -0.000002 0.000002 0.000000 0.000000 0.000000 0.000000 -0.000000 0.000000 0.000000 0.000000 0.000000 0.000000 0.000000 0.000000 0.000000 0.000000 0.000000 0.000000 -0.000000 0.000000 0.000000 0.000000 0.000000 0.000000 0.000000 0.000000 0.000000 0.000000 0.000000 0.000000 -0.000000 0.000000 0.000000 0.000000 -0.000000 0.000000 0.000000 -0.000000 0.000000 0.000000 -0.000000 
-0.646060 65.676346 3.582891 -12.940449 -1.217743 -5.226553 -0.000001 0.000000 0.000000 -28.989942 20.707218 11.433151 42.845558 -9.251022 10.083983 -4.218111 -8.000879 -0.974487 -0.000000 0.000000 -0.000000 -0.000002 -0.000000 -0.000000 -20.136122 -36.636363 -0.908728 39.617119 9.338977 -10.354759 -6.089122 7.676831 -5.243595 -0.000000 0.000002 -0.000000 0.000001 0.000002 -0.000001 5.919979 -0.633913 2.861095 9.101772 -0.326362 -0.858132 9.107326 -0.025739 -0.860712 15.423286 0.554961 0.870814 -3.284136 0.522453 4.912770 -0.000000 -0.000000 0.000000 -0.000000 -0.000000 0.000000 -0.000000 -0.000000 0.000000 -0.000000 -0.000000 0.000000 -0.000000 -0.000000 0.000000 -0.000000 -0.000000 0.000000 -0.000000 -0.000000 0.000000 -0.000000 -0.000000 0.000000 -0.000000 -0.000000 0.000000 0.689441 3.728124 -11.389586 59.635536 -63.287099 -9.181415 -0.000009 -20.479438 -0.000010 -19.271225 9.284296 -7.567686 21.734253 5.841503 -2.497393 -16.162755 18.936387 19.036144 0.000001 0.000001 -0.000002 0.152620 1.444574 -12.061575 0.086634 1.091006 -9.079580 0.000002 0.000002 -0.000003 0.152217 1.442685 -12.045593 0.086942 1.092909 -9.095567 0.000000 0.000001 0.000003 0.152622 1.444564 -12.061573 0.086632 1.091015 -9.079564 -0.000002 0.000001 -0.000002 0.985188 5.412801 -11.600976 0.078383 -2.964039 -9.583902 0.000000 -0.000001 -0.000001 -0.000000 -0.000001 0.000000 1.380290 0.014380 11.778444 9.844061 40.462543 56.845352 0.000011 26.845929 -0.000007 35.401174 -10.448976 11.800081 -0.389757 -6.638714 -15.665599 8.907269 -22.771349 0.157757 0.000001 0.000000 0.000000 0.174546 -1.551260 12.839276 0.140305 -1.392640 11.506926 0.000000 0.000001 0.000000 0.174539 -1.551251 12.839279 0.140314 -1.392649 11.506920 0.000001 -0.000000 0.000001 0.174541 -1.551238 12.839267 0.140299 -1.392664 11.506920 -0.000000 -0.000000 -0.000002 0.174549 -1.551239 12.839277 0.140299 -1.392662 11.506929 -0.000000 0.000001 -0.000005 -0.000001 0.000000 0.000000 -0.000000 -0.000000 0.000000 -0.000000 -0.000000 0.000000 -0.000000 -0.000000 0.000000 -0.000000 -0.000000 0.000000 -0.000000 -0.000000 0.000000 -0.000000 -0.000000 0.000000 -0.000000 -0.000000 0.000000 -0.000000 -0.000000 0.000000 -0.000000 -0.000000 0.000000 -0.000000 -0.000000 0.000000 -0.000001 0.000000 0.000000 -0.000001 0.000000 0.000000 -0.000001 0.000000 0.000000 
-0.648142 65.679024 3.587151 -12.926689 -1.180589 -5.226706 0.000001 0.000000 0.000000 -28.992336 20.690694 11.421179 42.833117 -9.252340 10.083562 -4.211761 -8.008622 -0.967801 0.000000 -0.000000 -0.000000 -0.000004 0.000001 -0.000000 -20.137527 -36.672857 -0.916642 39.606522 9.339722 -10.354325 -6.094277 7.673356 -5.242422 0.000000 0.000000 0.000000 -0.000002 0.000000 -0.000001 5.916770 -0.634413 2.864386 9.098277 -0.328489 -0.866142 9.103877 -0.028799 -0.868353 15.411977 0.550057 0.886042 -3.321174 0.521827 4.868124 0.000000 -0.000000 -0.000000 0.000000 -0.000000 -0.000000 0.000000 -0.000000 -0.000000 0.000000 -0.000000 -0.000000 0.000000 0.000000 -0.000000 0.000000 -0.000000 -0.000000 0.000000 0.000000 -0.000000 0.000000 -0.000000 -0.000000 0.000000 -0.000000 -0.000000 0.689444 3.729464 -11.390499 59.511363 -63.261936 -9.286482 0.000003 -20.488097 0.000024 -19.229276 9.299516 -7.586334 21.734253 5.841507 -2.497392 -16.162756 18.936389 19.036147 0.000000 0.000001 -0.000001 0.152616 1.444574 -12.061576 0.086631 1.091006 -9.079578 -0.000000 0.000000 -0.000000 0.152216 1.442685 -12.045594 0.086935 1.092908 -9.095569 0.000001 -0.000001 0.000000 0.152619 1.444564 -12.061574 0.086635 1.091017 -9.079566 -0.000001 0.000002 -0.000001 0.985186 5.412801 -11.600974 0.078381 -2.964039 -9.583901 -0.000001 -0.000001 -0.000003 0.000000 0.000001 -0.000000 1.379342 0.009006 11.778234 9.848091 40.481172 56.846664 0.000010 26.857859 -0.000022 35.377829 -10.457166 11.798799 -0.389756 -6.638712 -15.665602 8.907270 -22.771349 0.157757 0.000001 0.000000 -0.000003 0.174546 -1.551259 12.839275 0.140304 -1.392641 11.506928 0.000001 0.000000 -0.000001 0.174539 -1.551251 12.839280 0.140316 -1.392649 11.506923 -0.000000 -0.000000 -0.000001 0.174543 -1.551239 12.839269 0.140301 -1.392665 11.506925 0.000000 -0.000000 -0.000001 0.174549 -1.551238 12.839279 0.140300 -1.392662 11.506929 0.000001 0.000000 0.000002 0.000002 -0.000001 -0.000000 0.000000 0.000000 0.000001 0.000000 0.000000 0.000000 0.000000 0.000000 0.000000 0.000000 0.000000 0.000000 0.000000 0.000000 0.000001 0.000000 0.000000 0.000000 0.000000 0.000000 0.000000 0.000000 0.000000 0.000000 0.000000 0.000000 0.000001 0.000000 0.000000 0.000000 0.000001 0.000000 0.000000 0.000001 0.000000 0.000000 0.000001 0.000000 0.000000 
-0.650458 65.681671 3.591593 -12.913619 -1.144902 -5.227236 -0.000000 -0.000000 -0.000000 -28.994508 20.675092 11.410587 42.820997 -9.253553 10.083046 -4.205831 -8.016591 -0.960817 -0.000000 -0.000000 -0.000000 -0.000001 0.000000 0.000000 -20.137590 -36.707926 -0.923203 39.596010 9.340448 -10.353877 -6.099571 7.669300 -5.241414 0.000000 -0.000000 0.000000 -0.000000 0.000001 -0.000000 5.913870 -0.635174 2.867744 9.095247 -0.331065 -0.873291 9.100892 -0.032250 -0.875140 15.400786 0.545106 0.901279 -3.355565 0.520872 4.823728 0.000001 -0.000000 0.000000 0.000001 -0.000000 0.000000 0.000001 -0.000000 0.000000 0.000001 -0.000000 0.000000 0.000001 -0.000000 0.000000 0.000001 -0.000000 0.000000 0.000001 -0.000000 0.000000 0.000001 -0.000000 0.000000 0.000001 -0.000000 0.000000 0.689394 3.730279 -11.390355 59.372143 -63.239151 -9.406528 0.000005 -20.492444 0.000008 -19.183927 9.314085 -7.606368 21.734248 5.841507 -2.497392 -16.162758 18.936387 19.036142 0.000000 0.000001 -0.000002 0.152616 1.444574 -12.061574 0.086636 1.091007 -9.079582 0.000000 0.000000 -0.000000 0.152213 1.442683 -12.045590 0.086934 1.092907 -9.095566 -0.000000 -0.000001 0.000001 0.152620 1.444563 -12.061572 0.086632 1.091016 -9.079565 -0.000001 -0.000001 -0.000000 0.985184 5.412801 -11.600975 0.078381 -2.964040 -9.583901 -0.000001 -0.000001 -0.000001 -0.000001 0.000000 0.000001 1.378495 0.004378 11.777018 9.850226 40.499549 56.849010 0.000005 26.868038 -0.000011 35.355860 -10.464780 11.797774 -0.389755 -6.638713 -15.665602 8.907268 -22.771349 0.157757 0.000000 0.000002 -0.000000 0.174546 -1.551260 12.839278 0.140306 -1.392641 11.506928 0.000000 0.000000 0.000000 0.174541 -1.551250 12.839279 0.140314 -1.392650 11.506923 -0.000000 -0.000001 0.000001 0.174544 -1.551239 12.839270 0.140301 -1.392664 11.506922 -0.000000 0.000000 -0.000003 0.174550 -1.551238 12.839273 0.140303 -1.392662 11.506930 -0.000001 0.000000 0.000001 0.000002 0.000000 -0.000001 -0.000000 -0.000000 0.000000 -0.000000 -0.000000 -0.000000 -0.000000 -0.000000 0.000000 -0.000000 -0.000000 0.000000 -0.000000 -0.000000 0.000000 -0.000000 -0.000000 -0.000000 -0.000000 -0.000000 0.000000 -0.000000 -0.000000 0.000000 -0.000000 -0.000000 0.000000 -0.000000 -0.000000 -0.000000 -0.000000 -0.000000 -0.000000 -0.000000 -0.000000 -0.000000 -0.000000 -0.000000 -0.000000 
-0.652952 65.684258 3.596186 -12.901388 -1.110823 -5.228077 -0.000001 0.000000 0.000000 -28.996506 20.660429 11.401321 42.809877 -9.254646 10.082582 -4.200806 -8.024586 -0.954114 -0.000000 0.000000 -0.000000 0.000002 -0.000000 -0.000002 -20.136595 -36.742224 -0.928802 39.585905 9.341126 -10.353462 -6.105095 7.665394 -5.240828 -0.000000 0.000000 0.000000 0.000002 -0.000000 0.000000 5.911346 -0.636230 2.871068 9.092752 -0.334137 -0.879477 9.098462 -0.036119 -0.880976 15.389692 0.540276 0.916376 -3.387414 0.520192 4.780247 0.000001 -0.000000 -0.000000 0.000001 -0.000000 -0.000000 0.000001 -0.000000 -0.000000 0.000001 -0.000000 0.000000 0.000001 0.000000 -0.000000 0.000001 -0.000000 0.000000 0.000001 0.000000 -0.000000 0.000001 -0.000000 -0.000000 0.000001 -0.000000 -0.000000 0.689261 3.730461 -11.388660 59.216299 -63.219370 -9.543445 0.000003 -20.491788 -0.000007 -19.135101 9.327727 -7.627766 21.734251 5.841507 -2.497393 -16.162756 18.936389 19.036144 0.000002 -0.000001 0.000001 0.152618 1.444575 -12.061576 0.086634 1.091007 -9.079580 0.000001 0.000001 -0.000000 0.152214 1.442684 -12.045593 0.086939 1.092909 -9.095569 0.000002 -0.000000 0.000001 0.152617 1.444564 -12.061574 0.086634 1.091016 -9.079564 -0.000001 -0.000001 0.000001 0.985184 5.412801 -11.600976 0.078377 -2.964039 -9.583904 0.000000 -0.000000 -0.000001 0.000000 0.000000 -0.000001 1.377772 0.000540 11.774924 9.850694 40.518130 56.852135 -0.000003 26.876185 -0.000001 35.335188 -10.471746 11.796573 -0.389756 -6.638713 -15.665602 8.907268 -22.771342 0.157758 0.000001 -0.000002 -0.000004 0.174547 -1.551259 12.839276 0.140305 -1.392640 11.506928 0.000001 0.000000 0.000000 0.174539 -1.551251 12.839284 0.140316 -1.392649 11.506918 0.000001 -0.000001 0.000001 0.174543 -1.551239 12.839273 0.140301 -1.392664 11.506921 -0.000001 -0.000000 0.000001 0.174550 -1.551238 12.839273 0.140303 -1.392661 11.506928 -0.000001 0.000001 0.000001 -0.000000 -0.000000 -0.000001 0.000001 -0.000000 -0.000000 0.000001 -0.000000 -0.000000 0.000001 -0.000000 0.000000 0.000001 -0.000000 0.000000 0.000001 -0.000000 -0.000000 0.000001 -0.000000 -0.000000 0.000001 -0.000000 0.000000 0.000001 -0.000000 0.000000 0.000001 -0.000000 -0.000000 0.000001 -0.000000 -0.000000 -0.000001 0.000000 0.000000 -0.000001 0.000000 0.000000 -0.000001 0.000000 0.000000 
